<svg version="1.1" id="Layer_1" xmlns="http://www.w3.org/2000/svg" xmlns:xlink="http://www.w3.org/1999/xlink" x="0px" y="0px"
	 width="100%" viewBox="0 0 454 328" enable-background="new 0 0 454 328" xml:space="preserve">
<path fill="#F44E5C" opacity="1.000000" stroke="none" 
	d="
M253.000000,329.000000 
	C168.666687,329.000000 84.833382,329.000000 1.000056,329.000000 
	C1.000037,219.666718 1.000037,110.333450 1.000019,1.000129 
	C152.333237,1.000086 303.666473,1.000086 454.999756,1.000043 
	C454.999847,110.333199 454.999847,219.666397 454.999939,328.999817 
	C387.833344,329.000000 320.666656,329.000000 253.000000,329.000000 
M179.173538,193.182144 
	C177.974487,185.856705 176.775421,178.531265 175.529648,170.920425 
	C172.760544,170.920425 170.376389,171.292114 168.154739,170.849014 
	C162.090240,169.639450 159.713577,172.743668 158.093369,178.002594 
	C155.707153,185.747894 152.720032,193.308060 149.561584,202.142166 
	C145.848083,192.087677 142.638565,183.207352 139.239685,174.400116 
	C138.729111,173.077057 137.412857,171.210144 136.332397,171.112686 
	C132.095322,170.730545 127.803406,170.956375 123.404671,170.956375 
	C120.127815,190.686722 116.958542,209.769302 113.710579,229.325638 
	C117.745087,229.325638 120.915154,229.116180 124.044830,229.382111 
	C127.455368,229.671875 128.665482,228.283356 129.093674,224.995453 
	C130.262024,216.023788 131.759109,207.094925 133.125977,198.149094 
	C137.600937,207.271423 141.280838,216.473007 144.827972,225.725510 
	C145.736130,228.094376 146.793472,230.270020 149.667877,229.215759 
	C151.352997,228.597702 153.323975,227.237366 154.013199,225.695480 
	C156.654617,219.786011 158.804184,213.657990 161.188599,207.631805 
	C162.411865,204.540237 163.743454,201.491516 165.026093,198.423416 
	C167.284012,207.567505 168.520844,216.457809 170.102722,225.286301 
	C170.367691,226.765137 171.994522,228.959396 173.223114,229.126709 
	C176.952286,229.634583 180.794754,229.310608 185.307678,229.310608 
	C183.264587,217.181595 181.314880,205.607010 179.173538,193.182144 
M106.500000,117.020332 
	C127.923134,117.020332 149.346268,117.020332 171.286560,117.020332 
	C171.286560,123.708199 171.286560,129.636963 171.286560,135.721634 
	C174.855713,135.721634 177.894196,135.721634 180.981522,135.721634 
	C180.981522,126.270256 180.981522,117.194206 180.981522,107.678444 
	C178.647781,107.678444 176.678711,107.678444 174.709641,107.678436 
	C141.884171,107.678398 109.058693,107.679436 76.233223,107.677551 
	C68.552818,107.677116 68.548477,107.672592 68.543762,100.236115 
	C68.538582,92.071404 68.552345,83.906677 68.537483,75.741989 
	C68.531723,72.577225 69.028519,69.263130 68.235733,66.300919 
	C67.715813,64.358253 65.294785,62.924393 63.725185,61.262661 
	C62.019829,62.969696 60.133671,64.540932 58.698868,66.451187 
	C58.131733,67.206238 58.551945,68.715836 58.551739,69.881866 
	C58.548141,90.043709 58.542885,110.205551 58.559830,130.367371 
	C58.561325,132.146301 58.714413,133.925110 58.799747,135.761078 
	C62.188194,135.761078 65.100319,135.761078 68.587463,135.761078 
	C68.587463,129.511139 68.587463,123.582626 68.587463,117.020332 
	C81.273094,117.020332 93.386543,117.020332 106.500000,117.020332 
M146.499985,100.104179 
	C157.963791,100.104179 169.427597,100.104179 181.510880,100.104179 
	C181.510880,96.505531 181.550491,93.382828 181.502716,90.261452 
	C181.400238,83.566833 179.053223,80.866760 172.415878,80.213188 
	C149.900223,77.996124 127.378410,75.840706 104.853760,73.716812 
	C99.612160,73.222572 98.277115,74.480087 98.173462,79.730148 
	C98.102089,83.345428 98.159760,86.963242 98.159760,90.826584 
	C96.280518,90.967529 94.992462,91.136032 93.702972,91.147842 
	C89.206001,91.189056 84.646355,90.746643 80.240295,91.384445 
	C78.344894,91.658821 76.767548,94.130447 75.045700,95.603828 
	C76.710114,97.096779 78.222420,98.840698 80.101440,99.979576 
	C81.079094,100.572128 82.703934,100.103004 84.036430,100.103096 
	C104.524277,100.104469 125.012123,100.104134 146.499985,100.104179 
M263.359192,170.917297 
	C256.120483,170.917297 248.881775,170.917297 241.683762,170.917297 
	C241.683762,190.812790 241.683762,209.850723 241.683762,228.938354 
	C246.636063,228.938354 251.182632,228.938354 256.298431,228.938354 
	C256.298431,222.016205 256.298431,215.479523 256.298431,208.942841 
	C258.376190,210.030792 259.438232,211.407715 260.354279,212.875748 
	C263.171478,217.390610 265.889557,221.967850 268.747864,226.456100 
	C269.418457,227.509094 270.454163,229.054611 271.382507,229.098740 
	C276.716553,229.352295 282.068878,229.222168 288.227081,229.222168 
	C282.490173,221.376404 277.423981,214.447876 272.352509,207.512146 
	C281.861969,201.151169 284.960510,193.478821 282.239716,183.553619 
	C279.914001,175.069778 274.643982,171.356155 263.359192,170.917297 
M108.715607,197.490387 
	C108.715607,188.741287 108.715607,179.992172 108.715607,171.336639 
	C103.326752,171.336639 98.773636,171.336639 93.989952,171.336639 
	C93.989952,174.738968 94.031975,177.724030 93.982185,180.707565 
	C93.824089,190.181000 94.050270,199.686829 93.307884,209.115570 
	C92.799171,215.576523 89.356537,217.927139 83.289658,217.735443 
	C77.640526,217.556946 74.422791,214.442932 73.982689,208.157379 
	C73.646141,203.350830 73.747482,198.511017 73.724854,193.685669 
	C73.689972,186.246048 73.715675,178.806137 73.715675,171.250198 
	C68.464272,171.250198 63.903538,171.250198 59.173046,171.250198 
	C59.173046,184.694397 58.829529,197.820114 59.313717,210.915237 
	C59.566963,217.764359 62.470531,224.139145 68.906036,227.489243 
	C78.282578,232.370346 88.082664,232.516479 97.714249,227.933258 
	C102.632301,225.592972 106.100739,221.603821 107.032608,216.270691 
	C108.054459,210.422607 108.192406,204.420059 108.715607,197.490387 
M191.459274,210.498550 
	C191.459274,216.603928 191.459274,222.709305 191.459274,228.951538 
	C196.665939,228.951538 201.209122,228.951538 206.336334,228.951538 
	C206.336334,222.507080 206.336334,216.434235 206.336334,209.984833 
	C210.572601,209.984833 214.236862,210.193970 217.869736,209.944977 
	C228.088470,209.244614 233.978790,202.872330 234.799683,191.901917 
	C235.592255,181.309631 230.358994,172.741974 220.648529,171.624710 
	C211.197266,170.537247 201.522919,171.388489 191.459549,171.388489 
	C191.459549,184.233810 191.459549,196.866394 191.459274,210.498550 
M358.856720,182.334152 
	C361.116150,183.298248 363.375580,184.262360 366.154785,185.448257 
	C367.998077,181.637558 369.755219,178.004852 371.614746,174.160568 
	C363.486053,169.692398 355.521332,168.042526 347.076874,170.354095 
	C339.533661,172.418945 334.822693,179.055649 334.320740,187.638977 
	C333.875061,195.260223 337.377167,200.591751 345.118896,203.798660 
	C348.191437,205.071381 351.710571,205.577499 354.390350,207.378815 
	C356.217834,208.607254 358.228149,211.785965 357.808624,213.526810 
	C357.365265,215.366577 354.235474,217.538223 352.101288,217.747086 
	C349.340088,218.017319 346.341339,216.659439 343.563141,215.670395 
	C341.769928,215.032013 340.188782,213.797989 338.156311,212.625336 
	C336.043610,216.719437 334.091949,220.501450 332.059967,224.439117 
	C339.387848,229.379379 347.063354,231.653458 355.475800,230.863297 
	C365.751404,229.898132 372.955231,223.016602 373.918304,213.611664 
	C374.957062,203.467392 370.942749,197.713577 360.248016,193.927994 
	C357.744934,193.041962 355.043396,192.385925 352.899109,190.935364 
	C351.517273,190.000565 350.102112,187.678329 350.319519,186.218918 
	C350.538330,184.750320 352.593567,183.295197 354.162811,182.381638 
	C355.166870,181.797104 356.748932,182.205490 358.856720,182.334152 
M309.853455,184.058731 
	C315.126465,184.058731 320.399445,184.058731 325.677032,184.058731 
	C325.677032,179.327484 325.677032,175.289108 325.677032,171.217041 
	C314.842804,171.217041 304.418823,171.217041 293.752625,171.217041 
	C293.752625,190.595230 293.752625,209.670990 293.752625,228.995941 
	C304.603485,228.995941 315.156830,228.995941 325.796661,228.995941 
	C325.796661,224.726028 325.796661,220.797623 325.796661,216.132812 
	C319.823151,216.132812 314.118988,216.132812 308.084930,216.132812 
	C308.084930,209.254547 307.981018,203.109146 308.120605,196.969299 
	C308.217163,192.723785 308.649933,188.485916 309.853455,184.058731 
M75.430244,270.177765 
	C76.513069,270.070892 77.595901,269.963989 79.349380,269.790924 
	C77.036980,266.481201 75.074982,263.673035 72.873344,260.521851 
	C77.708603,257.334900 78.982590,252.499466 76.237633,248.016083 
	C72.212547,241.441849 65.288651,244.801605 59.228226,244.063812 
	C59.228226,253.039658 59.228226,261.424011 59.228226,269.909973 
	C61.307701,269.909973 63.074181,269.909973 64.976395,269.909973 
	C65.261505,267.221375 65.521339,264.771149 65.746162,262.651093 
	C68.952599,265.368988 71.788094,267.772491 75.430244,270.177765 
M280.764038,270.166748 
	C281.505646,269.698975 282.886841,269.240723 282.893982,268.762024 
	C283.023895,260.027222 282.988861,251.289978 282.988861,242.244110 
	C280.612640,242.376923 279.018158,242.466049 276.996460,242.579041 
	C276.996460,246.330521 276.996460,249.739426 276.996460,253.513580 
	C275.710358,253.076599 274.950104,252.783539 274.170074,252.559067 
	C270.139465,251.399094 266.928680,252.639954 264.687256,256.102661 
	C262.258026,259.855560 262.368591,263.782715 265.017151,267.300507 
	C267.296661,270.328125 270.412476,271.384460 274.312073,270.238220 
	C276.030701,269.733093 278.026337,270.170441 280.764038,270.166748 
M260.016937,259.350647 
	C258.899597,253.979019 256.563568,252.020309 251.237915,251.989471 
	C246.446915,251.961731 242.972046,254.514694 242.074661,258.721680 
	C240.996964,263.773987 242.767578,268.560699 247.270599,269.715454 
	C250.510620,270.546356 254.500778,270.263977 257.667664,269.122467 
	C261.893799,267.599182 259.624207,263.265503 260.016937,259.350647 
M82.395348,254.888763 
	C81.867645,258.304169 80.331749,261.951630 81.051750,265.079865 
	C82.096230,269.617859 86.503784,271.572998 90.833145,270.693329 
	C93.665718,270.117828 97.576874,267.988312 98.350990,265.669006 
	C99.685501,261.670746 99.791451,256.569977 95.415421,253.605301 
	C91.280891,250.804245 86.947205,251.395538 82.395348,254.888763 
M159.906128,269.629944 
	C162.099396,269.815796 164.292664,270.001617 166.558533,270.193604 
	C166.558533,263.918335 166.558533,258.409424 166.558533,253.006180 
	C162.335663,252.674805 158.321854,251.532913 154.753860,252.346405 
	C151.992844,252.975906 148.506882,255.634003 147.683777,258.154602 
	C146.780991,260.919067 147.813583,264.984863 149.360596,267.713959 
	C151.385056,271.285248 155.294617,271.443512 159.906128,269.629944 
M222.175110,253.578110 
	C220.311005,253.173203 218.446899,252.768280 216.108047,252.260239 
	C216.108047,256.181580 216.428360,259.047882 215.973389,261.785370 
	C215.744644,263.161774 214.107071,264.304047 213.106598,265.552216 
	C212.145737,264.243317 210.569489,263.027893 210.353531,261.605896 
	C209.918533,258.741364 210.224030,255.764420 210.224030,252.842529 
	C207.806152,252.842529 206.078873,252.842529 204.040649,252.842529 
	C204.040649,256.205994 204.009445,259.176788 204.047134,262.146698 
	C204.126068,268.367615 206.894226,270.958405 213.395813,270.950562 
	C219.673172,270.942993 222.222183,268.521149 222.345291,262.350098 
	C222.398224,259.696350 222.323257,257.040009 222.175110,253.578110 
M75.472366,80.596451 
	C78.838898,86.325096 83.794716,88.040657 88.584114,85.135353 
	C92.963921,82.478508 94.400017,76.861206 91.595963,72.630219 
	C89.117752,68.890900 85.528099,67.686317 81.222702,68.902367 
	C76.668472,70.188705 74.713524,73.800117 75.472366,80.596451 
M106.395149,263.032166 
	C107.524612,263.559082 108.654068,264.085968 110.868317,265.118958 
	C102.369545,266.548279 102.369545,266.548279 101.538918,268.535065 
	C106.518570,271.857239 112.318611,271.688171 114.834030,267.772003 
	C119.009811,261.270935 112.515099,260.020081 109.285431,257.728882 
	C111.438141,256.479065 113.342422,255.373489 116.278275,253.669022 
	C109.061302,251.115616 104.868675,251.916718 103.110115,255.442719 
	C101.502556,258.665955 102.296127,261.234100 106.395149,263.032166 
M194.394135,257.154755 
	C195.759705,255.206863 200.923386,258.452820 199.778412,252.800186 
	C195.777313,251.497772 191.457062,250.827698 188.801300,254.983826 
	C184.621643,261.524750 191.694870,262.364410 194.625626,265.915497 
	C192.498199,265.709991 190.370758,265.504517 188.313766,265.305817 
	C185.761902,268.232300 186.849106,270.058258 190.158737,270.313995 
	C192.839218,270.521088 195.847275,270.389130 198.214691,269.315399 
	C199.683853,268.649109 200.942474,265.955353 200.969574,264.151703 
	C200.992584,262.621246 199.298279,260.880280 198.012527,259.579834 
	C197.156799,258.714325 195.683380,258.459503 194.394135,257.154755 
M170.311050,269.081909 
	C172.997482,269.618683 175.972610,271.118774 178.290070,270.424286 
	C180.660706,269.713837 183.332901,267.186432 184.159241,264.848602 
	C185.233505,261.809357 182.622635,259.810516 179.585388,258.894836 
	C178.754654,258.644379 178.043945,257.995697 177.211197,257.489075 
	C179.688400,256.424957 181.860901,255.491760 185.081284,254.108429 
	C178.656509,251.129105 173.789139,251.570618 171.885727,254.799805 
	C167.983002,261.420776 174.401901,262.424500 178.287827,264.765289 
	C178.072891,265.129547 177.857941,265.493805 177.643005,265.858093 
	C175.695496,265.653748 173.747971,265.449432 171.333984,265.196167 
	C170.937103,266.080872 170.416382,267.241608 170.311050,269.081909 
M322.903320,193.517868 
	C317.330719,191.545151 313.235474,193.283112 311.944061,198.168793 
	C310.809998,202.459244 313.321136,206.749237 317.554474,207.753510 
	C321.706879,208.738586 326.248627,205.866745 326.388916,201.328049 
	C326.464447,198.884705 324.555756,196.380005 322.903320,193.517868 
M129.125473,269.282806 
	C125.724464,263.949829 125.862320,257.999329 126.063972,252.021362 
	C126.112762,250.575241 125.905701,249.120514 125.804199,247.473526 
	C123.797333,247.473526 122.081367,247.473526 120.424896,247.473526 
	C120.075043,249.209381 120.015060,250.734680 119.451897,252.043442 
	C118.308014,254.701767 119.610703,267.111511 121.886497,268.429291 
	C123.890778,269.589874 126.572983,269.579681 129.125473,269.282806 
M225.927780,255.002747 
	C225.927780,259.901764 225.927780,264.800781 225.927780,269.836029 
	C228.198456,269.836029 229.897034,269.836029 231.711121,269.836029 
	C231.711121,263.998322 231.711121,258.487823 231.711121,251.841003 
	C229.420013,252.752853 227.697372,253.438461 225.927780,255.002747 
M288.461060,244.192215 
	C288.157684,244.300064 287.586517,244.415497 287.589325,244.514694 
	C287.746460,250.072495 287.896271,255.632477 288.251373,261.179138 
	C288.281433,261.648895 289.816437,262.472443 290.469879,262.324707 
	C291.114929,262.178864 291.898499,261.048706 291.981934,260.280884 
	C292.446655,256.005798 292.563477,251.690140 293.103149,247.426819 
	C293.524292,244.099823 291.712738,243.894547 288.461060,244.192215 
M128.695526,253.369308 
	C128.629135,255.077194 128.297913,256.845886 128.667206,258.453705 
	C128.770126,258.901764 131.348419,259.440521 132.069595,258.926117 
	C133.045822,258.229797 134.084991,255.741714 133.770630,255.449539 
	C132.567429,254.331177 130.833206,253.784134 128.695526,253.369308 
M239.839279,257.124695 
	C238.906052,255.675705 238.122269,254.074081 236.921539,252.898254 
	C236.661423,252.643524 234.287140,253.698105 233.985458,254.542313 
	C233.573044,255.696426 234.212326,257.226379 234.400787,258.595245 
	C236.121460,258.324554 237.842148,258.053864 239.839279,257.124695 
M289.722351,270.931213 
	C290.899445,269.695740 292.449951,268.618439 293.072662,267.148163 
	C293.327240,266.547119 291.762543,264.613953 290.673004,264.187561 
	C289.840790,263.861908 287.439819,265.086945 287.480042,265.393707 
	C287.719086,267.217438 288.465759,268.974670 289.722351,270.931213 
z"/>
<path fill="#F5F2F2" opacity="1.000000" stroke="none" 
	d="
M179.269348,193.607285 
	C181.314880,205.607010 183.264587,217.181595 185.307678,229.310608 
	C180.794754,229.310608 176.952286,229.634583 173.223114,229.126709 
	C171.994522,228.959396 170.367691,226.765137 170.102722,225.286301 
	C168.520844,216.457809 167.284012,207.567505 165.026093,198.423416 
	C163.743454,201.491516 162.411865,204.540237 161.188599,207.631805 
	C158.804184,213.657990 156.654617,219.786011 154.013199,225.695480 
	C153.323975,227.237366 151.352997,228.597702 149.667877,229.215759 
	C146.793472,230.270020 145.736130,228.094376 144.827972,225.725510 
	C141.280838,216.473007 137.600937,207.271423 133.125977,198.149094 
	C131.759109,207.094925 130.262024,216.023788 129.093674,224.995453 
	C128.665482,228.283356 127.455368,229.671875 124.044830,229.382111 
	C120.915154,229.116180 117.745087,229.325638 113.710579,229.325638 
	C116.958542,209.769302 120.127815,190.686722 123.404671,170.956375 
	C127.803406,170.956375 132.095322,170.730545 136.332397,171.112686 
	C137.412857,171.210144 138.729111,173.077057 139.239685,174.400116 
	C142.638565,183.207352 145.848083,192.087677 149.561584,202.142166 
	C152.720032,193.308060 155.707153,185.747894 158.093369,178.002594 
	C159.713577,172.743668 162.090240,169.639450 168.154739,170.849014 
	C170.376389,171.292114 172.760544,170.920425 175.529648,170.920425 
	C176.775421,178.531265 177.974487,185.856705 179.269348,193.607285 
z"/>
<path fill="#F1E7E3" opacity="1.000000" stroke="none" 
	d="
M106.000000,117.020332 
	C93.386543,117.020332 81.273094,117.020332 68.587463,117.020332 
	C68.587463,123.582626 68.587463,129.511139 68.587463,135.761078 
	C65.100319,135.761078 62.188194,135.761078 58.799747,135.761078 
	C58.714413,133.925110 58.561325,132.146301 58.559830,130.367371 
	C58.542885,110.205551 58.548141,90.043709 58.551739,69.881866 
	C58.551945,68.715836 58.131733,67.206238 58.698868,66.451187 
	C60.133671,64.540932 62.019829,62.969696 63.725185,61.262661 
	C65.294785,62.924393 67.715813,64.358253 68.235733,66.300919 
	C69.028519,69.263130 68.531723,72.577225 68.537483,75.741989 
	C68.552345,83.906677 68.538582,92.071404 68.543762,100.236115 
	C68.548477,107.672592 68.552818,107.677116 76.233223,107.677551 
	C109.058693,107.679436 141.884171,107.678398 174.709641,107.678436 
	C176.678711,107.678444 178.647781,107.678444 180.981522,107.678444 
	C180.981522,117.194206 180.981522,126.270256 180.981522,135.721634 
	C177.894196,135.721634 174.855713,135.721634 171.286560,135.721634 
	C171.286560,129.636963 171.286560,123.708199 171.286560,117.020332 
	C149.346268,117.020332 127.923134,117.020332 106.000000,117.020332 
z"/>
<path fill="#F1E8E4" opacity="1.000000" stroke="none" 
	d="
M145.999969,100.104187 
	C125.012123,100.104134 104.524277,100.104469 84.036430,100.103096 
	C82.703934,100.103004 81.079094,100.572128 80.101440,99.979576 
	C78.222420,98.840698 76.710114,97.096779 75.045700,95.603828 
	C76.767548,94.130447 78.344894,91.658821 80.240295,91.384445 
	C84.646355,90.746643 89.206001,91.189056 93.702972,91.147842 
	C94.992462,91.136032 96.280518,90.967529 98.159760,90.826584 
	C98.159760,86.963242 98.102089,83.345428 98.173462,79.730148 
	C98.277115,74.480087 99.612160,73.222572 104.853760,73.716812 
	C127.378410,75.840706 149.900223,77.996124 172.415878,80.213188 
	C179.053223,80.866760 181.400238,83.566833 181.502716,90.261452 
	C181.550491,93.382828 181.510880,96.505531 181.510880,100.104179 
	C169.427597,100.104179 157.963791,100.104179 145.999969,100.104187 
z"/>
<path fill="#F5F1F1" opacity="1.000000" stroke="none" 
	d="
M263.834839,170.918335 
	C274.643982,171.356155 279.914001,175.069778 282.239716,183.553619 
	C284.960510,193.478821 281.861969,201.151169 272.352509,207.512146 
	C277.423981,214.447876 282.490173,221.376404 288.227081,229.222168 
	C282.068878,229.222168 276.716553,229.352295 271.382507,229.098740 
	C270.454163,229.054611 269.418457,227.509094 268.747864,226.456100 
	C265.889557,221.967850 263.171478,217.390610 260.354279,212.875748 
	C259.438232,211.407715 258.376190,210.030792 256.298431,208.942841 
	C256.298431,215.479523 256.298431,222.016205 256.298431,228.938354 
	C251.182632,228.938354 246.636063,228.938354 241.683762,228.938354 
	C241.683762,209.850723 241.683762,190.812790 241.683762,170.917297 
	C248.881775,170.917297 256.120483,170.917297 263.834839,170.918335 
M256.007690,187.610901 
	C256.007690,190.382019 256.007690,193.153137 256.007690,196.352005 
	C258.339142,196.352005 260.135986,196.504349 261.898621,196.323425 
	C267.149689,195.784393 269.890625,190.824524 267.471344,186.149368 
	C265.501892,182.343491 261.766663,182.459274 258.346680,182.928116 
	C257.414337,183.055939 256.779846,185.356308 256.007690,187.610901 
z"/>
<path fill="#F5F1F1" opacity="1.000000" stroke="none" 
	d="
M108.715561,197.987610 
	C108.192406,204.420059 108.054459,210.422607 107.032608,216.270691 
	C106.100739,221.603821 102.632301,225.592972 97.714249,227.933258 
	C88.082664,232.516479 78.282578,232.370346 68.906036,227.489243 
	C62.470531,224.139145 59.566963,217.764359 59.313717,210.915237 
	C58.829529,197.820114 59.173046,184.694397 59.173046,171.250198 
	C63.903538,171.250198 68.464272,171.250198 73.715675,171.250198 
	C73.715675,178.806137 73.689972,186.246048 73.724854,193.685669 
	C73.747482,198.511017 73.646141,203.350830 73.982689,208.157379 
	C74.422791,214.442932 77.640526,217.556946 83.289658,217.735443 
	C89.356537,217.927139 92.799171,215.576523 93.307884,209.115570 
	C94.050270,199.686829 93.824089,190.181000 93.982185,180.707565 
	C94.031975,177.724030 93.989952,174.738968 93.989952,171.336639 
	C98.773636,171.336639 103.326752,171.336639 108.715607,171.336639 
	C108.715607,179.992172 108.715607,188.741287 108.715561,197.987610 
z"/>
<path fill="#F5F1F1" opacity="1.000000" stroke="none" 
	d="
M191.459412,209.998764 
	C191.459549,196.866394 191.459549,184.233810 191.459549,171.388489 
	C201.522919,171.388489 211.197266,170.537247 220.648529,171.624710 
	C230.358994,172.741974 235.592255,181.309631 234.799683,191.901917 
	C233.978790,202.872330 228.088470,209.244614 217.869736,209.944977 
	C214.236862,210.193970 210.572601,209.984833 206.336334,209.984833 
	C206.336334,216.434235 206.336334,222.507080 206.336334,228.951538 
	C201.209122,228.951538 196.665939,228.951538 191.459274,228.951538 
	C191.459274,222.709305 191.459274,216.603928 191.459412,209.998764 
M209.546844,183.152451 
	C208.393509,183.949509 206.328842,184.660873 206.244446,185.558426 
	C205.877319,189.462723 206.086823,193.421219 206.086823,198.818298 
	C210.554138,197.593292 214.663818,197.423737 217.338486,195.377991 
	C218.973038,194.127792 219.241943,189.794250 218.624817,187.202530 
	C217.702148,183.327698 213.845901,183.155685 209.546844,183.152451 
z"/>
<path fill="#F5F1F1" opacity="1.000000" stroke="none" 
	d="
M358.464294,182.251450 
	C356.748932,182.205490 355.166870,181.797104 354.162811,182.381638 
	C352.593567,183.295197 350.538330,184.750320 350.319519,186.218918 
	C350.102112,187.678329 351.517273,190.000565 352.899109,190.935364 
	C355.043396,192.385925 357.744934,193.041962 360.248016,193.927994 
	C370.942749,197.713577 374.957062,203.467392 373.918304,213.611664 
	C372.955231,223.016602 365.751404,229.898132 355.475800,230.863297 
	C347.063354,231.653458 339.387848,229.379379 332.059967,224.439117 
	C334.091949,220.501450 336.043610,216.719437 338.156311,212.625336 
	C340.188782,213.797989 341.769928,215.032013 343.563141,215.670395 
	C346.341339,216.659439 349.340088,218.017319 352.101288,217.747086 
	C354.235474,217.538223 357.365265,215.366577 357.808624,213.526810 
	C358.228149,211.785965 356.217834,208.607254 354.390350,207.378815 
	C351.710571,205.577499 348.191437,205.071381 345.118896,203.798660 
	C337.377167,200.591751 333.875061,195.260223 334.320740,187.638977 
	C334.822693,179.055649 339.533661,172.418945 347.076874,170.354095 
	C355.521332,168.042526 363.486053,169.692398 371.614746,174.160568 
	C369.755219,178.004852 367.998077,181.637558 366.154785,185.448257 
	C363.375580,184.262360 361.116150,183.298248 358.464294,182.251450 
z"/>
<path fill="#F5F1F1" opacity="1.000000" stroke="none" 
	d="
M309.392944,184.151672 
	C308.649933,188.485916 308.217163,192.723785 308.120605,196.969299 
	C307.981018,203.109146 308.084930,209.254547 308.084930,216.132812 
	C314.118988,216.132812 319.823151,216.132812 325.796661,216.132812 
	C325.796661,220.797623 325.796661,224.726028 325.796661,228.995941 
	C315.156830,228.995941 304.603485,228.995941 293.752625,228.995941 
	C293.752625,209.670990 293.752625,190.595230 293.752625,171.217041 
	C304.418823,171.217041 314.842804,171.217041 325.677032,171.217041 
	C325.677032,175.289108 325.677032,179.327484 325.677032,184.058731 
	C320.399445,184.058731 315.126465,184.058731 309.392944,184.151672 
z"/>
<path fill="#F5F1F1" opacity="1.000000" stroke="none" 
	d="
M75.026917,270.176880 
	C71.788094,267.772491 68.952599,265.368988 65.746162,262.651093 
	C65.521339,264.771149 65.261505,267.221375 64.976395,269.909973 
	C63.074181,269.909973 61.307701,269.909973 59.228226,269.909973 
	C59.228226,261.424011 59.228226,253.039658 59.228226,244.063812 
	C65.288651,244.801605 72.212547,241.441849 76.237633,248.016083 
	C78.982590,252.499466 77.708603,257.334900 72.873344,260.521851 
	C75.074982,263.673035 77.036980,266.481201 79.349380,269.790924 
	C77.595901,269.963989 76.513069,270.070892 75.026917,270.176880 
M70.909546,252.491623 
	C69.502419,251.443054 68.095299,250.394501 66.688179,249.345932 
	C66.195915,250.273926 65.311554,251.201767 65.311195,252.129959 
	C65.310760,253.275879 66.045296,254.422104 66.462234,255.568176 
	C67.900146,254.789261 69.338058,254.010330 70.909546,252.491623 
z"/>
<path fill="#F5EFEF" opacity="1.000000" stroke="none" 
	d="
M280.330139,270.173309 
	C278.026337,270.170441 276.030701,269.733093 274.312073,270.238220 
	C270.412476,271.384460 267.296661,270.328125 265.017151,267.300507 
	C262.368591,263.782715 262.258026,259.855560 264.687256,256.102661 
	C266.928680,252.639954 270.139465,251.399094 274.170074,252.559067 
	C274.950104,252.783539 275.710358,253.076599 276.996460,253.513580 
	C276.996460,249.739426 276.996460,246.330521 276.996460,242.579041 
	C279.018158,242.466049 280.612640,242.376923 282.988861,242.244110 
	C282.988861,251.289978 283.023895,260.027222 282.893982,268.762024 
	C282.886841,269.240723 281.505646,269.698975 280.330139,270.173309 
M271.931671,265.125061 
	C273.531647,264.143555 275.658997,263.479218 276.517517,262.051788 
	C276.972534,261.295227 275.534912,258.814941 274.347107,257.885315 
	C273.682526,257.365173 270.681854,258.308655 270.631073,258.791931 
	C270.423706,260.766388 270.947479,262.817657 271.931671,265.125061 
z"/>
<path fill="#F5EDEE" opacity="1.000000" stroke="none" 
	d="
M260.018555,259.729309 
	C259.624207,263.265503 261.893799,267.599182 257.667664,269.122467 
	C254.500778,270.263977 250.510620,270.546356 247.270599,269.715454 
	C242.767578,268.560699 240.996964,263.773987 242.074661,258.721680 
	C242.972046,254.514694 246.446915,251.961731 251.237915,251.989471 
	C256.563568,252.020309 258.899597,253.979019 260.018555,259.729309 
z"/>
<path fill="#F5E8E9" opacity="1.000000" stroke="none" 
	d="
M82.670898,254.612839 
	C86.947205,251.395538 91.280891,250.804245 95.415421,253.605301 
	C99.791451,256.569977 99.685501,261.670746 98.350990,265.669006 
	C97.576874,267.988312 93.665718,270.117828 90.833145,270.693329 
	C86.503784,271.572998 82.096230,269.617859 81.051750,265.079865 
	C80.331749,261.951630 81.867645,258.304169 82.670898,254.612839 
M90.448929,262.620331 
	C89.288582,262.837463 88.128235,263.054596 86.967896,263.271729 
	C86.924316,263.870483 86.880737,264.469238 86.837158,265.068024 
	C88.542450,265.250732 90.247742,265.433441 91.953033,265.616150 
	C91.738098,264.631439 91.523155,263.646698 90.448929,262.620331 
z"/>
<path fill="#F5EDEE" opacity="1.000000" stroke="none" 
	d="
M159.482224,269.754822 
	C155.294617,271.443512 151.385056,271.285248 149.360596,267.713959 
	C147.813583,264.984863 146.780991,260.919067 147.683777,258.154602 
	C148.506882,255.634003 151.992844,252.975906 154.753860,252.346405 
	C158.321854,251.532913 162.335663,252.674805 166.558533,253.006180 
	C166.558533,258.409424 166.558533,263.918335 166.558533,270.193604 
	C164.292664,270.001617 162.099396,269.815796 159.482224,269.754822 
M156.563217,265.393036 
	C159.562241,265.100677 161.199417,263.390900 160.409485,260.502014 
	C160.080734,259.299713 158.242340,257.807068 157.028046,257.748901 
	C155.826981,257.691376 153.442917,259.395172 153.520767,260.116730 
	C153.711395,261.883850 155.022598,263.530121 156.563217,265.393036 
z"/>
<path fill="#F5EBEC" opacity="1.000000" stroke="none" 
	d="
M222.240753,253.981476 
	C222.323257,257.040009 222.398224,259.696350 222.345291,262.350098 
	C222.222183,268.521149 219.673172,270.942993 213.395813,270.950562 
	C206.894226,270.958405 204.126068,268.367615 204.047134,262.146698 
	C204.009445,259.176788 204.040649,256.205994 204.040649,252.842529 
	C206.078873,252.842529 207.806152,252.842529 210.224030,252.842529 
	C210.224030,255.764420 209.918533,258.741364 210.353531,261.605896 
	C210.569489,263.027893 212.145737,264.243317 213.106598,265.552216 
	C214.107071,264.304047 215.744644,263.161774 215.973389,261.785370 
	C216.428360,259.047882 216.108047,256.181580 216.108047,252.260239 
	C218.446899,252.768280 220.311005,253.173203 222.240753,253.981476 
z"/>
<path fill="#F1E6E3" opacity="1.000000" stroke="none" 
	d="
M75.313179,80.229095 
	C74.713524,73.800117 76.668472,70.188705 81.222702,68.902367 
	C85.528099,67.686317 89.117752,68.890900 91.595963,72.630219 
	C94.400017,76.861206 92.963921,82.478508 88.584114,85.135353 
	C83.794716,88.040657 78.838898,86.325096 75.313179,80.229095 
z"/>
<path fill="#F5EBEC" opacity="1.000000" stroke="none" 
	d="
M106.051247,262.904999 
	C102.296127,261.234100 101.502556,258.665955 103.110115,255.442719 
	C104.868675,251.916718 109.061302,251.115616 116.278275,253.669022 
	C113.342422,255.373489 111.438141,256.479065 109.285431,257.728882 
	C112.515099,260.020081 119.009811,261.270935 114.834030,267.772003 
	C112.318611,271.688171 106.518570,271.857239 101.538918,268.535065 
	C102.369545,266.548279 102.369545,266.548279 110.868317,265.118958 
	C108.654068,264.085968 107.524612,263.559082 106.051247,262.904999 
z"/>
<path fill="#F5EBEC" opacity="1.000000" stroke="none" 
	d="
M194.440277,257.543030 
	C195.683380,258.459503 197.156799,258.714325 198.012527,259.579834 
	C199.298279,260.880280 200.992584,262.621246 200.969574,264.151703 
	C200.942474,265.955353 199.683853,268.649109 198.214691,269.315399 
	C195.847275,270.389130 192.839218,270.521088 190.158737,270.313995 
	C186.849106,270.058258 185.761902,268.232300 188.313766,265.305817 
	C190.370758,265.504517 192.498199,265.709991 194.625626,265.915497 
	C191.694870,262.364410 184.621643,261.524750 188.801300,254.983826 
	C191.457062,250.827698 195.777313,251.497772 199.778412,252.800186 
	C200.923386,258.452820 195.759705,255.206863 194.440277,257.543030 
z"/>
<path fill="#F5EBEC" opacity="1.000000" stroke="none" 
	d="
M170.103363,268.742126 
	C170.416382,267.241608 170.937103,266.080872 171.333984,265.196167 
	C173.747971,265.449432 175.695496,265.653748 177.643005,265.858093 
	C177.857941,265.493805 178.072891,265.129547 178.287827,264.765289 
	C174.401901,262.424500 167.983002,261.420776 171.885727,254.799805 
	C173.789139,251.570618 178.656509,251.129105 185.081284,254.108429 
	C181.860901,255.491760 179.688400,256.424957 177.211197,257.489075 
	C178.043945,257.995697 178.754654,258.644379 179.585388,258.894836 
	C182.622635,259.810516 185.233505,261.809357 184.159241,264.848602 
	C183.332901,267.186432 180.660706,269.713837 178.290070,270.424286 
	C175.972610,271.118774 172.997482,269.618683 170.103363,268.742126 
z"/>
<path fill="#644C37" opacity="1.000000" stroke="none" 
	d="
M323.222839,193.710434 
	C324.555756,196.380005 326.464447,198.884705 326.388916,201.328049 
	C326.248627,205.866745 321.706879,208.738586 317.554474,207.753510 
	C313.321136,206.749237 310.809998,202.459244 311.944061,198.168793 
	C313.235474,193.283112 317.330719,191.545151 323.222839,193.710434 
z"/>
<path fill="#F5F1F1" opacity="1.000000" stroke="none" 
	d="
M129.040649,269.684662 
	C126.572983,269.579681 123.890778,269.589874 121.886497,268.429291 
	C119.610703,267.111511 118.308014,254.701767 119.451897,252.043442 
	C120.015060,250.734680 120.075043,249.209381 120.424896,247.473526 
	C122.081367,247.473526 123.797333,247.473526 125.804199,247.473526 
	C125.905701,249.120514 126.112762,250.575241 126.063972,252.021362 
	C125.862320,257.999329 125.724464,263.949829 129.040649,269.684662 
z"/>
<path fill="#F5F1F1" opacity="1.000000" stroke="none" 
	d="
M225.951263,254.563400 
	C227.697372,253.438461 229.420013,252.752853 231.711121,251.841003 
	C231.711121,258.487823 231.711121,263.998322 231.711121,269.836029 
	C229.897034,269.836029 228.198456,269.836029 225.927780,269.836029 
	C225.927780,264.800781 225.927780,259.901764 225.951263,254.563400 
z"/>
<path fill="#F5E8E9" opacity="1.000000" stroke="none" 
	d="
M288.876404,244.164749 
	C291.712738,243.894547 293.524292,244.099823 293.103149,247.426819 
	C292.563477,251.690140 292.446655,256.005798 291.981934,260.280884 
	C291.898499,261.048706 291.114929,262.178864 290.469879,262.324707 
	C289.816437,262.472443 288.281433,261.648895 288.251373,261.179138 
	C287.896271,255.632477 287.746460,250.072495 287.589325,244.514694 
	C287.586517,244.415497 288.157684,244.300064 288.876404,244.164749 
z"/>
<path fill="#F5E8E9" opacity="1.000000" stroke="none" 
	d="
M128.996368,253.196564 
	C130.833206,253.784134 132.567429,254.331177 133.770630,255.449539 
	C134.084991,255.741714 133.045822,258.229797 132.069595,258.926117 
	C131.348419,259.440521 128.770126,258.901764 128.667206,258.453705 
	C128.297913,256.845886 128.629135,255.077194 128.996368,253.196564 
z"/>
<path fill="#F5E8E9" opacity="1.000000" stroke="none" 
	d="
M239.701050,257.453918 
	C237.842148,258.053864 236.121460,258.324554 234.400787,258.595245 
	C234.212326,257.226379 233.573044,255.696426 233.985458,254.542313 
	C234.287140,253.698105 236.661423,252.643524 236.921539,252.898254 
	C238.122269,254.074081 238.906052,255.675705 239.701050,257.453918 
z"/>
<path fill="#F5E8E9" opacity="1.000000" stroke="none" 
	d="
M289.382141,270.842712 
	C288.465759,268.974670 287.719086,267.217438 287.480042,265.393707 
	C287.439819,265.086945 289.840790,263.861908 290.673004,264.187561 
	C291.762543,264.613953 293.327240,266.547119 293.072662,267.148163 
	C292.449951,268.618439 290.899445,269.695740 289.382141,270.842712 
z"/>
<path fill="#F44F5D" opacity="1.000000" stroke="none" 
	d="
M256.008179,187.135269 
	C256.779846,185.356308 257.414337,183.055939 258.346680,182.928116 
	C261.766663,182.459274 265.501892,182.343491 267.471344,186.149368 
	C269.890625,190.824524 267.149689,195.784393 261.898621,196.323425 
	C260.135986,196.504349 258.339142,196.352005 256.007690,196.352005 
	C256.007690,193.153137 256.007690,190.382019 256.008179,187.135269 
z"/>
<path fill="#F45764" opacity="1.000000" stroke="none" 
	d="
M209.977646,183.151184 
	C213.845901,183.155685 217.702148,183.327698 218.624817,187.202530 
	C219.241943,189.794250 218.973038,194.127792 217.338486,195.377991 
	C214.663818,197.423737 210.554138,197.593292 206.086823,198.818298 
	C206.086823,193.421219 205.877319,189.462723 206.244446,185.558426 
	C206.328842,184.660873 208.393509,183.949509 209.977646,183.151184 
z"/>
<path fill="#F46874" opacity="1.000000" stroke="none" 
	d="
M70.842758,252.861511 
	C69.338058,254.010330 67.900146,254.789261 66.462234,255.568176 
	C66.045296,254.422104 65.310760,253.275879 65.311195,252.129959 
	C65.311554,251.201767 66.195915,250.273926 66.688171,249.345947 
	C68.095299,250.394501 69.502419,251.443054 70.842758,252.861511 
z"/>
<path fill="#F45C69" opacity="1.000000" stroke="none" 
	d="
M271.566833,264.982849 
	C270.947479,262.817657 270.423706,260.766388 270.631073,258.791931 
	C270.681854,258.308655 273.682526,257.365173 274.347107,257.885315 
	C275.534912,258.814941 276.972534,261.295227 276.517517,262.051788 
	C275.658997,263.479218 273.531647,264.143555 271.566833,264.982849 
z"/>
<path fill="#F44E5C" opacity="1.000000" stroke="none" 
	d="
M90.878571,262.641174 
	C91.523155,263.646698 91.738098,264.631439 91.953033,265.616150 
	C90.247742,265.433441 88.542450,265.250732 86.837158,265.068024 
	C86.880737,264.469238 86.924316,263.870483 86.967896,263.271729 
	C88.128235,263.054596 89.288582,262.837463 90.878571,262.641174 
z"/>
<path fill="#F4606D" opacity="1.000000" stroke="none" 
	d="
M156.223053,265.309021 
	C155.022598,263.530121 153.711395,261.883850 153.520767,260.116730 
	C153.442917,259.395172 155.826981,257.691376 157.028046,257.748901 
	C158.242340,257.807068 160.080734,259.299713 160.409485,260.502014 
	C161.199417,263.390900 159.562241,265.100677 156.223053,265.309021 
z"/>
</svg>